<svg width="160" height="160"  fill="none" xmlns="http://www.w3.org/2000/svg">
<g clip-path="url(#clip0_290_3199)">
<path fill-rule="evenodd" clip-rule="evenodd" d="M153.736 133.272C151.609 139.835 145.622 147.278 135.414 150.777C129.454 152.818 122.01 153.526 113.051 151.845C111.389 153.928 109.173 155.57 106.586 156.799C103.512 158.259 99.8983 159.106 96.1726 159.38C92.6628 159.637 88.938 159.385 85.4132 158.66C81.6514 157.887 78.0816 156.53 75.1128 154.622C72.5459 156.867 69.5501 158.341 66.3773 159.179C62.2605 160.267 57.8838 160.216 53.866 159.365C49.8462 158.514 46.0605 156.828 43.1506 154.661C41.6027 153.507 40.2698 152.194 39.2159 150.756C32.1703 151.768 24.9527 150.584 19.086 147.784C15.0233 145.842 11.5125 143.092 9.01361 139.706C6.30577 136.037 4.80286 131.687 5.02084 126.861C5.24383 121.947 7.26671 116.697 11.6765 111.421C7.69769 101.468 5.93979 92.0556 5.97779 83.3032C6.03878 69.2922 10.6675 57.098 18.1721 47.1097C25.5617 37.2734 35.7281 29.6029 47.0304 24.4733C57.8728 19.5536 69.8461 16.9488 81.4614 17.0008C89.483 17.0368 97.4145 18.3937 104.888 20.9365C118.211 25.4672 130.187 33.7616 138.819 45.0448C147.498 56.3891 152.8 70.7151 152.728 87.244C152.694 94.8094 151.544 102.792 149.089 111.091C151.245 113.631 152.857 116.261 153.861 119.143C155.381 123.503 155.419 128.075 153.736 133.272Z" fill="#332755"/>
<path fill-rule="evenodd" clip-rule="evenodd" d="M141.611 112.819C147.475 118.464 149.882 123.776 147.466 131.234C144.676 139.848 132.631 150.606 109.515 144.242C107.024 156.326 79.365 154.962 74.456 144.66C67.187 160.082 43.143 152.146 43.122 143.035C23.853 149.626 -1.46698 132.93 19.424 112.819C-5.09198 58.959 40.757 23.467 81.432 23.649C121.522 23.827 159.473 60.45 141.611 112.819Z" fill="#EFE2CB"/>
<path fill-rule="evenodd" clip-rule="evenodd" d="M115.678 108.746C117.894 108.025 120.589 108.744 121.696 110.352C122.804 111.96 121.905 113.849 119.689 114.57C117.472 115.292 114.778 114.573 113.67 112.965C112.563 111.357 113.461 109.468 115.678 108.746ZM123.533 118.629C126.973 117.509 131.155 118.625 132.874 121.121C134.593 123.616 133.198 126.548 129.758 127.667C126.318 128.787 122.136 127.671 120.417 125.176C118.698 122.68 120.093 119.748 123.533 118.629ZM135.966 114.016C139.922 101.811 141.195 90.1099 139.751 79.2469C141.783 77.9399 143.534 76.1489 144.824 73.8409C147.185 85.3789 146.494 98.5049 141.611 112.819C155.492 124.528 146.935 141.877 130.856 145.217C149.778 133.843 142.877 118.744 135.966 114.016Z" fill="white"/>
<path fill-rule="evenodd" clip-rule="evenodd" d="M23.2239 113.321C17.9299 101.424 15.8039 88.079 17.4949 75.625C18.4279 76.022 19.4029 76.322 20.4099 76.489L20.4339 76.493C22.0039 76.755 23.6539 76.739 25.2709 76.436C25.6749 76.375 26.0799 76.272 26.4789 76.125C29.9609 74.83 32.4049 72.3 34.5389 69.739C30.9579 83.252 31.5749 97.514 34.8339 111.145C35.5459 114.127 36.4279 115.774 34.0019 117.251C21.9889 124.571 29.3639 133.915 38.5649 134.551C47.8359 135.184 44.1749 139.833 37.7909 140.854C17.9159 144.034 6.53794 125.231 23.2239 113.321Z" fill="#D5BD95"/>
<path fill-rule="evenodd" clip-rule="evenodd" d="M10.936 60.697C16.43 47.449 26.464 36.856 38.578 29.482C51.439 21.652 66.749 17.42 81.456 17.485C95.07 17.546 108.464 21.465 119.857 28.555C130.961 35.464 140.195 45.4 145.936 57.732C146.134 58.16 146.279 58.599 146.374 59.042L146.391 59.038C147.5 64.153 147.127 68.402 145.797 71.808C144.376 75.445 141.936 78.046 139.002 79.713C136.254 81.273 133.084 81.957 129.971 81.861C126.195 81.748 122.413 80.47 119.508 78.223C117.504 76.673 115.365 75.023 113.401 73.653L113.856 76.356C115.572 86.458 117.453 97.529 107.6 100.251C98.928 102.648 95.21 97.301 93.211 90.106C92.587 87.88 92.201 85.578 91.841 83.415C91.262 79.931 91.074 78.356 89.13 75.263C87.445 72.581 91.082 90.488 76.876 90.488L76.215 90.452C68.148 90.147 65.804 83.529 63.482 76.962C61.6 72.284 59.967 79.498 56.022 84.167C51.426 89.607 46.136 92.078 39.42 86.42C34.802 82.532 34.748 76.608 34.696 70.798L34.692 69.558C32.522 72.18 30.043 74.8 26.479 76.125C26.08 76.272 25.675 76.375 25.271 76.436C23.654 76.739 22.004 76.755 20.434 76.493L20.41 76.489C18.178 76.119 16.07 75.178 14.35 73.69C12.508 72.097 11.156 69.956 10.589 67.309C10.253 65.739 10.203 64.002 10.52 62.13C10.603 61.626 10.745 61.146 10.936 60.697Z" fill="#332755"/>
<path fill-rule="evenodd" clip-rule="evenodd" d="M16.558 63.146C26.841 38.245 55.2081 23.532 81.4311 23.649C106.023 23.759 129.806 37.585 140.4 60.343C143.763 75.837 129.852 78.442 123.222 73.317C116.626 68.215 108.615 62.08 107.102 65.915C104.891 71.518 113.354 92.272 105.995 94.305C98.0211 96.51 98.6251 82.067 96.6331 76.662C94.5911 71.126 91.4251 66.833 87.7301 66.859C82.2271 66.859 84.038 84.301 76.876 84.301C68.924 84.348 69.961 67.943 63.364 65.888C57.1311 63.963 52.2121 89.146 43.3511 81.682C38.4501 77.553 43.133 63.964 38.348 60.377C33.824 56.986 30.4071 68.08 24.3711 70.324C20.1171 71.234 15.625 68.698 16.558 63.146Z" fill="#B35742"/>
<path fill-rule="evenodd" clip-rule="evenodd" d="M51.1439 34.15C58.6109 31.573 58.0189 33.678 53.5589 37.929C46.4369 44.717 41.3399 52.206 37.8979 60.087C33.5919 57.72 30.2049 68.155 24.3709 70.324C22.3319 70.76 20.2459 70.396 18.7209 69.297C22.5999 53.802 32.9379 40.435 51.1439 34.15Z" fill="#94402B"/>
<path fill-rule="evenodd" clip-rule="evenodd" d="M138.427 72.332C133.408 52.306 118.392 35.624 92.906 24.699C93.915 24.879 94.918 25.089 95.917 25.315C96.111 25.359 96.304 25.404 96.497 25.449C98.489 25.918 100.457 26.476 102.394 27.122C102.596 27.189 102.797 27.258 102.998 27.327C103.899 27.637 104.794 27.961 105.68 28.308C105.742 28.333 105.805 28.355 105.867 28.379C106.803 28.749 107.728 29.144 108.646 29.555C108.856 29.649 109.065 29.746 109.274 29.842C110.067 30.207 110.853 30.586 111.631 30.981C111.764 31.049 111.9 31.113 112.033 31.182C112.905 31.632 113.765 32.105 114.616 32.593C114.833 32.718 115.047 32.846 115.262 32.973C115.959 33.383 116.649 33.806 117.33 34.242C117.513 34.359 117.699 34.472 117.881 34.591C118.682 35.115 119.471 35.658 120.25 36.216C120.468 36.373 120.683 36.536 120.9 36.695C121.51 37.145 122.113 37.606 122.707 38.077C122.92 38.246 123.136 38.412 123.347 38.583C124.074 39.175 124.788 39.782 125.489 40.405C125.703 40.595 125.911 40.791 126.122 40.984C126.655 41.47 127.179 41.966 127.695 42.47C127.92 42.691 128.148 42.91 128.37 43.134C129.019 43.788 129.656 44.456 130.277 45.14C130.476 45.359 130.668 45.585 130.864 45.807C131.327 46.332 131.781 46.865 132.227 47.406C132.448 47.675 132.67 47.943 132.887 48.215C133.456 48.931 134.014 49.658 134.553 50.401C134.726 50.641 134.891 50.888 135.062 51.131C135.463 51.701 135.855 52.279 136.237 52.865C136.439 53.175 136.641 53.486 136.838 53.801C137.31 54.553 137.769 55.315 138.209 56.091C138.362 56.361 138.506 56.637 138.654 56.91C138.999 57.542 139.334 58.18 139.658 58.827C139.83 59.171 139.999 59.516 140.165 59.863C140.251 60.044 140.328 60.229 140.413 60.41C141.605 65.977 140.558 69.866 138.427 72.332Z" fill="#E28259"/>
<path fill-rule="evenodd" clip-rule="evenodd" d="M119.007 60.218C114.189 55.224 109.295 50.559 102.913 48.058C91.05 43.409 97.684 34.155 106.588 38.506C114.079 42.168 119.218 47.851 122.273 55.944C123.629 59.533 124.04 65.439 119.007 60.218ZM89.663 42.525C87.276 42.371 85.235 40.133 85.104 37.528C84.973 34.924 86.802 32.937 89.19 33.092C91.577 33.247 93.618 35.484 93.749 38.089C93.88 40.694 92.05 42.68 89.663 42.525Z" fill="#E28259"/>
</g>

</svg>
