<svg width="160" height="160"  fill="none" xmlns="http://www.w3.org/2000/svg">
<g clip-path="url(#clip0_290_3220)">
<path fill-rule="evenodd" clip-rule="evenodd" d="M153.74 133.272C151.613 139.836 145.625 147.279 135.418 150.777C129.457 152.818 122.012 153.526 113.053 151.845C111.391 153.929 109.175 155.572 106.589 156.8C103.514 158.26 99.9006 159.106 96.173 159.38C92.6646 159.638 88.94 159.385 85.4151 158.661C81.6531 157.887 78.0831 156.531 75.1131 154.622C72.5465 156.868 69.551 158.342 66.377 159.18C62.261 160.267 57.884 160.216 53.8655 159.365C49.8456 158.515 46.0596 156.829 43.1511 154.663C41.6016 153.508 40.2696 152.194 39.215 150.756C32.1695 151.768 24.9516 150.585 19.0851 147.785C15.0216 145.843 11.5116 143.092 9.01255 139.707C6.30355 136.037 4.80205 131.688 5.01955 126.862C5.24155 121.947 7.26505 116.698 11.675 111.422C7.69705 101.468 5.93905 92.057 5.97655 83.3034C6.03805 69.2932 10.6656 57.0985 18.1716 47.1105C25.5606 37.2746 35.7276 29.6034 47.0301 24.4747C57.8721 19.5538 69.8465 16.9496 81.4625 17.0007C89.4846 17.0369 97.4151 18.3947 104.89 20.9372C118.214 25.4683 130.19 33.7612 138.821 45.0452C147.502 56.3894 152.804 70.7158 152.732 87.2444C152.698 94.8102 151.547 102.793 149.092 111.092C151.249 113.631 152.861 116.261 153.865 119.144C155.384 123.505 155.423 128.075 153.74 133.272Z" fill="#332755"/>
<path fill-rule="evenodd" clip-rule="evenodd" d="M141.616 112.816C147.479 118.461 149.885 123.771 147.47 131.228C144.68 139.841 132.635 150.598 109.52 144.235C107.03 156.317 79.37 154.953 74.462 144.654C67.193 160.072 43.1495 152.138 43.1285 143.028C23.8595 149.618 -1.45897 132.925 19.43 112.816C-5.08447 58.9622 40.763 23.4741 81.437 23.6562C121.528 23.8353 159.478 60.4524 141.616 112.816Z" fill="#F5A1C6"/>
<path fill-rule="evenodd" clip-rule="evenodd" d="M130.86 145.209C149.781 133.837 142.88 118.741 135.971 114.013C148.337 75.8588 134.618 42.5835 92.9104 24.7054C128.318 31.0366 157.757 65.4951 141.615 112.816C155.496 124.524 146.939 141.871 130.86 145.209ZM115.682 108.743C117.899 108.022 120.593 108.741 121.701 110.349C122.808 111.957 121.91 113.846 119.693 114.567C117.477 115.288 114.782 114.57 113.675 112.962C112.568 111.353 113.466 109.465 115.682 108.743ZM123.537 118.625C126.977 117.505 131.159 118.62 132.878 121.116C134.597 123.612 133.202 126.543 129.762 127.662C126.323 128.782 122.139 127.667 120.422 125.171C118.703 122.675 120.098 119.745 123.537 118.625Z" fill="#FFD4E7"/>
<path fill-rule="evenodd" clip-rule="evenodd" d="M51.1505 34.157C16.3145 46.1796 10.2365 84.1167 23.231 113.317C6.54503 125.227 17.9225 144.028 37.7975 140.847C44.1815 139.826 47.843 135.178 38.5715 134.545C29.3705 133.909 21.995 124.566 34.0085 117.248C36.434 115.771 35.552 114.124 34.8395 111.142C28.8275 85.9983 31.778 58.6988 53.5655 37.9337C58.025 33.6844 58.6175 31.58 51.1505 34.157Z" fill="#DA75A2"/>
</g>

</svg>
