<svg width="160" height="160"  fill="none" xmlns="http://www.w3.org/2000/svg">
<g clip-path="url(#clip0_290_3274)">
<path fill-rule="evenodd" clip-rule="evenodd" d="M154.999 127.451C155.173 143.496 135.918 153.449 110.891 157.609C101.805 159.118 91.8489 159.915 81.8188 159.994C71.8067 160.071 61.7796 159.436 52.5366 158.088C26.1231 154.232 5.17524 144.16 5.00101 127.544C4.96797 124.409 5.74748 121.398 7.23442 118.557C8.09505 116.916 9.18697 115.336 10.4862 113.828C9.85685 111.691 9.34618 109.527 8.96018 107.341C8.3639 103.947 8.05149 100.473 8.05149 96.951C8.05149 85.996 11.0119 76.4216 16.2507 68.0857C21.8515 59.1773 30.0072 51.8141 39.878 45.78C47.927 40.8546 53.7907 35.9624 56.8908 30.0311C59.8812 24.3096 60.4549 17.1428 58.1449 7.34479C57.3894 4.1382 59.3645 0.92104 62.5531 0.161306C63.4213 -0.0456189 64.2894 -0.0471292 65.1095 0.120526C70.4159 0.92406 75.85 2.35743 81.2766 4.34664C100.255 11.302 119.345 25.1781 132.896 42.6535C146.699 60.4491 154.876 82.0509 151.682 104.112C151.214 107.35 150.499 110.599 149.52 113.845C150.789 115.331 151.854 116.884 152.696 118.494C154.177 121.324 154.964 124.321 154.999 127.451Z" fill="#332755"/>
<path fill-rule="evenodd" clip-rule="evenodd" d="M142.755 115.413C146.815 119.089 149.033 123.182 149.081 127.497C149.469 162.848 11.2881 162.959 10.9172 127.497C10.8721 123.182 13.1851 119.089 17.2434 115.413C15.1362 109.602 13.9917 103.396 13.9917 96.9511C13.9917 76.4866 25.4802 61.5532 42.9645 50.8641C60.8078 39.9484 69.2578 28.5932 63.9228 5.96887C107.381 12.3231 161.065 64.9305 142.755 115.413Z" fill="#84C9FA"/>
<path fill-rule="evenodd" clip-rule="evenodd" d="M149.081 127.497C149.2 138.424 136.076 145.977 117.881 150.161C141.607 140.46 145.371 125.31 132.448 117.186C154.476 88.5139 121.841 28.2503 63.9229 5.96887C107.381 12.3231 161.065 64.9305 142.755 115.413C146.815 119.089 149.033 123.182 149.081 127.497ZM91.4102 28.5328C93.4304 27.8969 95.8861 28.5313 96.8954 29.948C97.9047 31.3648 97.0846 33.0293 95.0645 33.6636C93.0459 34.2995 90.5887 33.6667 89.5793 32.2499C88.57 30.8331 89.3901 29.1687 91.4102 28.5328ZM98.0038 38.5513C101.138 37.5635 104.952 38.5483 106.517 40.7459C108.084 42.9466 106.813 45.5279 103.678 46.5157C100.542 47.5019 96.7302 46.5187 95.1636 44.3195C93.5971 42.1204 94.8692 39.5376 98.0038 38.5513ZM124.549 74.1983C130.928 81.0797 133.375 88.3674 132.115 96.4874C130.614 106.137 116.443 106.566 119.643 94.329C121.364 87.7467 119.812 81.2111 117.867 74.5608C115.832 67.6115 121.721 71.1443 124.549 74.1983ZM124.913 106.675C127.678 107.448 128.808 109.91 127.435 112.174C126.063 114.439 122.71 115.648 119.944 114.875C117.179 114.103 116.051 111.641 117.423 109.376C118.794 107.112 122.148 105.903 124.913 106.675Z" fill="#D4EDFF"/>
<path fill-rule="evenodd" clip-rule="evenodd" d="M40.1272 58.5037C20.2322 72.919 13.7513 92.1117 22.5708 116.148C17.8907 119.908 15.7939 124.971 16.7236 129.695C18.3998 138.23 30.2623 147.108 59.3253 150.175C75.7807 151.91 68.0276 145.077 59.5265 143.858C47.0527 142.068 20.9952 135.373 33.6312 120.086C35.5027 117.822 35.2744 116.984 34.5384 113.89C29.5384 92.8186 33.439 81.1915 49.5775 66.894C64.0534 54.0722 84.7129 40.7383 71.9072 17.2908C66.0856 6.63794 67.0393 13.7036 68.2439 20.07C72.1475 40.699 56.3694 46.7346 40.1272 58.5037Z" fill="#53A0E3"/>
</g>

</svg>
