<svg width="120" height="144"  fill="none" xmlns="http://www.w3.org/2000/svg">
<g clip-path="url(#clip0_290_1996)">
<g clip-path="url(#clip1_290_1996)">
<path fill-rule="evenodd" clip-rule="evenodd" d="M117.492 20.336L109.346 52.324C108.96 56.378 105.138 59.76 98.894 62.242L87.538 132.43C87.502 132.726 87.438 133.024 87.344 133.318C86.254 136.732 83.258 139.242 79.11 140.93C74.268 142.898 67.422 143.91 60.546 143.982C53.722 144.052 46.718 143.206 41.498 141.468C36.762 139.89 33.16 137.426 31.636 134.002C31.424 133.572 31.27 133.102 31.192 132.602L19.808 62.242C13.564 59.76 9.74197 56.378 9.35797 52.324L1.20997 20.334C0.423972 19.116 -0.00402832 17.818 -0.00402832 16.442C-0.00402832 10.514 7.63597 5.96404 19.988 3.40404C30.172 1.29404 44.1 -0.0119629 59.352 -0.0119629C74.602 -0.0119629 88.53 1.29404 98.714 3.40404C111.066 5.96404 118.708 10.514 118.708 16.442C118.708 17.818 118.278 19.116 117.492 20.336Z" fill="#332755"/>
<path fill-rule="evenodd" clip-rule="evenodd" d="M112.87 17.3921C112.87 18.4841 112.136 19.5381 110.816 20.5361L102.892 51.6481C102.892 54.3141 99.138 56.7601 92.898 58.6881V58.7301L83.072 129.848C79.914 139.744 39.838 139.532 36.064 129.848L26.2031 58.7149L26.1523 58.6881C19.9103 56.7601 16.246 54.3141 16.246 51.6481L7.84198 18.6541C7.64598 18.2661 7.53398 17.8721 7.51998 17.4721C7.37198 17.1361 7.28198 16.7961 7.28198 16.4521V16.4481C7.28198 13.2681 13.154 10.9261 22.88 9.39205C32.252 7.40805 45.27 6.18005 60.186 6.18005C77.86 6.18005 92.844 7.90605 102.272 10.5721C106.156 11.5161 108.976 12.6581 110.504 14.0021C110.628 14.0901 110.724 14.1781 110.838 14.2661C112.142 15.2581 112.87 16.3061 112.87 17.3921Z" fill="#F8C494"/>
<path fill-rule="evenodd" clip-rule="evenodd" d="M104.628 23.3279C99.004 27.0079 79.002 28.6119 58.206 28.6119C38.622 28.6119 21.444 26.5019 11.782 23.3279C21.444 20.1559 38.622 18.0439 58.206 18.0439C77.792 18.0439 94.97 20.1559 104.628 23.3279Z" fill="#E0A065"/>
<path fill-rule="evenodd" clip-rule="evenodd" d="M14.6796 45.5312L12.6405 37.5234C25.5265 42.8194 41.456 45.978 59.042 45.978C76.944 45.978 93.5742 42.6419 106.57 37.1719L104.664 44.6875C91.7859 49.5235 75.91 52.428 59.042 52.428C32.938 52.428 19.8256 47.9072 14.6796 45.5312Z" fill="#E0A065"/>
<path fill-rule="evenodd" clip-rule="evenodd" d="M33.4375 69.672C32.3755 68.67 31.3815 67.632 30.3735 66.6C34.4335 67.128 38.8255 67.548 43.4715 67.848C42.5395 68.59 41.6275 69.358 40.6815 70.08C41.7815 71.04 42.9015 71.992 44.0355 72.932C45.3195 73.994 46.6055 75.026 47.8895 76.03C49.3375 77.16 50.8455 78.298 52.4095 79.44C53.8915 80.522 55.3715 81.572 56.8475 82.584C59.5375 80.41 62.1695 78.17 64.7355 75.874C67.2295 73.642 69.6555 71.364 72.0035 69.042C71.5855 68.776 71.1835 68.486 70.7675 68.216C72.4315 68.122 74.0555 68.004 75.6495 67.868C77.0415 67.78 78.4095 67.68 79.7555 67.572C79.6155 67.726 79.4815 67.884 79.3375 68.038C81.3115 69.204 83.3055 70.336 85.3095 71.428C87.0895 72.398 88.9095 73.338 90.7375 74.262L89.2915 84.696C88.8135 85.258 88.3555 85.842 87.8715 86.4C86.1375 88.392 84.3415 90.368 82.4895 92.322L80.6435 94.248L79.1495 95.766C81.3995 96.904 83.6815 98.004 85.9855 99.064C86.3935 99.252 86.8155 99.42 87.2255 99.606L86.5475 104.506C85.3275 103.962 84.0975 103.438 82.8895 102.87C80.4315 101.716 77.9955 100.51 75.5895 99.262C73.5135 101.248 71.3795 103.208 69.1955 105.128C67.0795 106.99 64.9255 108.81 62.7415 110.586C65.1255 112.082 67.5475 113.53 69.9995 114.922C72.5595 116.378 75.1595 117.782 77.7895 119.124C78.7555 118.19 79.7295 117.226 80.7075 116.238C81.7255 115.21 82.7275 114.176 83.7095 113.138C84.3655 112.446 84.9995 111.742 85.6415 111.042L84.5695 118.778C84.4255 118.926 84.2755 119.086 84.1315 119.234L82.1075 121.266C82.7615 121.582 83.4395 121.87 84.0995 122.178L83.4175 127.098C81.7635 126.334 80.1015 125.58 78.4775 124.776C76.2415 126.884 73.9495 128.95 71.6115 130.966C69.3615 132.906 67.0475 134.816 64.6835 136.688C64.8455 136.786 65.0155 136.872 65.1775 136.97C62.3315 137.182 59.3775 137.218 56.4755 137.078C54.3255 135.678 52.2035 134.234 50.1215 132.752C47.8815 131.162 45.6875 129.526 43.5375 127.85L41.2015 125.992C39.4795 127.072 37.7135 128.116 35.9455 129.158L35.2455 124.102C35.9595 123.674 36.6855 123.27 37.3955 122.834C36.4815 122.052 35.6295 121.222 34.7355 120.422L33.7595 113.382C33.9635 113.574 34.1475 113.778 34.3515 113.97C36.6415 116.118 39.0195 118.22 41.4735 120.268C43.8035 118.768 46.0975 117.224 48.3515 115.644C50.5155 114.126 52.6575 112.564 54.7735 110.96C53.1695 109.872 51.5835 108.756 50.0215 107.622C48.3275 106.39 46.6395 105.122 44.9735 103.822L42.5915 101.932L40.4575 100.178C38.3855 101.516 36.2875 102.822 34.1735 104.086C33.6455 104.402 33.1235 104.686 32.5975 104.994L31.8995 99.952C33.5315 98.98 35.2455 98 36.7495 96.992C34.6675 95.15 32.6635 93.258 30.7055 91.338L29.6695 83.862C30.7855 85.034 31.9255 86.198 33.0935 87.348C35.5455 89.762 38.0975 92.116 40.7455 94.402C42.8935 92.972 45.0095 91.512 47.0895 90.02C49.1075 88.574 51.0915 87.098 53.0315 85.6C51.8355 84.76 50.6475 83.902 49.4675 83.032C48.1735 82.078 46.8735 81.092 45.5735 80.076C44.0335 78.874 42.5275 77.658 41.0615 76.436C39.6455 75.252 38.2675 74.066 36.9335 72.878C35.1555 74.176 33.3715 75.44 31.5875 76.662C30.7095 77.264 29.8075 77.844 28.9175 78.434L28.2075 73.312C28.2895 73.258 28.3735 73.206 28.4535 73.152C30.1115 72.03 31.7715 70.87 33.4375 69.672ZM77.2415 91.238C78.0855 90.378 78.9015 89.532 79.6875 88.702C81.3175 86.98 82.9135 85.23 84.4675 83.458C85.8915 81.834 87.2835 80.188 88.6375 78.526C86.5055 77.442 84.3975 76.32 82.3215 75.17C80.1675 73.976 78.0495 72.752 75.9755 71.502C73.5735 73.918 71.0875 76.294 68.5295 78.62C66.0355 80.886 63.4735 83.102 60.8595 85.26C63.0835 86.702 65.3475 88.106 67.6435 89.464C70.0295 90.874 72.4555 92.242 74.9175 93.562L77.2415 91.238ZM52.0395 118.734C49.8255 120.314 47.5755 121.858 45.2915 123.362L45.8535 123.802C48.1955 125.632 50.6115 127.42 53.0895 129.162C55.5075 130.86 57.9775 132.51 60.4895 134.102C62.9035 132.232 65.2775 130.312 67.5995 128.348C69.8255 126.464 72.0115 124.534 74.1475 122.566C71.5655 121.21 69.0175 119.802 66.5135 118.346C63.9215 116.84 61.3655 115.276 58.8595 113.662C56.6135 115.402 54.3375 117.094 52.0395 118.734ZM50.7295 93.122C48.6835 94.618 46.5935 96.086 44.4715 97.526L45.6515 98.48L47.2875 99.774C49.1275 101.208 51.0195 102.624 52.9535 104.014C54.8115 105.348 56.7135 106.662 58.6535 107.948C60.9155 106.15 63.1215 104.32 65.2615 102.47C67.3215 100.69 69.3535 98.864 71.3455 96.994C68.9275 95.664 66.5375 94.288 64.1895 92.87C61.7635 91.406 59.3795 89.892 57.0415 88.338C54.9475 89.986 52.8435 91.582 50.7295 93.122Z" fill="#E0A065"/>
<path fill-rule="evenodd" clip-rule="evenodd" d="M99.856 32.39C89.592 34.494 75.556 35.796 60.186 35.796C44.816 35.796 30.778 34.494 20.514 32.39C8.06597 29.838 0.365967 23.302 0.365967 17.392C0.365967 11.482 8.06597 6.94604 20.514 4.39404C30.778 2.29004 44.816 0.988037 60.186 0.988037C75.556 0.988037 89.592 2.29004 99.856 4.39404C112.304 6.94604 120.006 11.482 120.006 17.392C120.006 23.302 112.304 29.838 99.856 32.39ZM60.186 6.18004C29.986 6.18004 7.50197 11.2 7.50197 17.392C7.50197 23.584 29.986 28.604 60.186 28.604C90.388 28.604 112.87 23.584 112.87 17.392C112.87 11.2 90.388 6.18004 60.186 6.18004Z" fill="#332755"/>
<path fill-rule="evenodd" clip-rule="evenodd" d="M59.528 61.526C87.282 61.526 95.004 58.012 95.004 58.012L93.484 65.942C84.02 67.456 72.252 68.368 59.528 68.368C46.644 68.368 34.73 67.434 25.208 65.886L23.994 58.012C23.994 58.012 31.776 61.526 59.528 61.526Z" fill="#332755"/>
<path opacity="0.502" fill-rule="evenodd" clip-rule="evenodd" d="M16.094 31.26C17.49 31.692 18.966 32.072 20.514 32.39C26.834 33.686 34.592 34.674 43.204 35.244C42.996 43.83 43.6642 53.3319 45.1562 61.1719C36.5625 60.6562 27.7812 59.7188 22.862 57.552L16.094 31.26ZM43.488 135.038C40.508 112.306 37.603 89.8414 34.625 67.1094C41.9844 67.9375 50.6815 68.335 59.1875 68.375C58.6255 88.975 59.77 119.774 62.918 137.092C56.06 137.396 48.808 136.704 43.488 135.038Z" fill="#BF7B3D"/>
</g>
</g>

</svg>
