<svg width="120" height="104"  fill="none" xmlns="http://www.w3.org/2000/svg">
<g clip-path="url(#clip0_290_2014)">
<g clip-path="url(#clip1_290_2014)">
<path fill-rule="evenodd" clip-rule="evenodd" d="M118.924 20.3561L108.472 90.2021C108.124 95.2601 101.788 99.0921 91.716 101.216C83.524 102.944 72.304 104.014 60.012 104.014C47.718 104.014 36.5 102.944 28.308 101.216C18.236 99.0921 11.898 95.2601 11.552 90.2021L1.09801 20.3561C0.39601 19.1941 0.0100098 17.9641 0.0100098 16.6681C0.0100098 10.7181 7.71001 6.11806 20.156 3.49206C30.434 1.32206 44.532 -0.0179443 60.012 -0.0179443C75.49 -0.0179443 89.588 1.32206 99.868 3.49206C112.312 6.11806 120.014 10.7181 120.014 16.6681C120.014 17.9641 119.626 19.1941 118.924 20.3561Z" fill="#332755"/>
<path fill-rule="evenodd" clip-rule="evenodd" d="M111.98 18.688L101.342 88.762C101.342 93.812 83.9421 97.906 60.0121 97.906C36.0801 97.906 18.6801 93.812 18.6801 88.762L8.04205 18.688C7.49405 18.03 7.15405 17.358 7.15405 16.668C7.15405 10.274 29.7141 5.59204 60.0121 5.59204C90.3081 5.59204 112.868 10.274 112.868 16.668C112.868 17.358 112.528 18.03 111.98 18.688Z" fill="#F8C494"/>
<path fill-rule="evenodd" clip-rule="evenodd" d="M108.528 41.428L107.74 46.622C106.114 45.994 104.488 45.372 102.882 44.71C100.532 43.746 98.2039 42.748 95.9119 41.72C94.1019 43.824 92.2439 45.892 90.3459 47.92C88.3659 50.036 86.3119 52.134 84.1979 54.21L82.0859 56.252L80.3779 57.864C82.9499 59.074 85.5579 60.242 88.1919 61.366C90.9279 62.534 93.6979 63.658 96.4979 64.732C98.9739 61.878 101.344 58.978 103.588 56.042C104.768 54.5 105.906 52.946 107.016 51.384L105.478 61.518C104.144 63.208 102.848 64.918 101.446 66.572C102.47 66.94 103.516 67.274 104.55 67.63L103.934 71.694L103.766 72.794C101.782 72.118 99.7959 71.44 97.8299 70.714C96.4299 72.274 94.9899 73.828 93.5159 75.37C91.9779 76.98 90.4019 78.578 88.7939 80.154C87.8739 81.056 86.9639 81.934 86.0719 82.78L83.7599 84.938C86.4379 86.136 89.1539 87.292 91.9019 88.402C94.4599 89.434 97.0659 90.42 99.6959 91.376C99.3759 91.626 98.9979 91.868 98.5879 92.108C98.5459 92.134 98.5119 92.16 98.4679 92.184C98.0379 92.428 97.5579 92.668 97.0359 92.902C97.0079 92.914 96.9819 92.928 96.9539 92.942C95.8459 93.432 94.5439 93.898 93.0699 94.332C91.4619 93.706 89.8519 93.1 88.2499 92.438C85.3319 91.228 82.4499 89.97 79.6099 88.664C77.0559 90.902 74.4359 93.096 71.7639 95.236C70.7119 96.08 69.5999 96.892 68.5219 97.724C67.1599 97.784 65.7699 97.828 64.3499 97.86C62.9339 97.89 61.4919 97.906 60.0239 97.906C60.0199 97.906 60.0159 97.906 60.0119 97.906C59.9859 97.906 59.9599 97.904 59.9339 97.904C62.3859 96.124 64.8139 94.316 67.1799 92.456C69.7239 90.456 72.2219 88.408 74.6639 86.318C71.7139 84.878 68.8019 83.384 65.9399 81.838C62.9759 80.24 60.0559 78.578 57.1899 76.866C54.6219 78.712 52.0219 80.51 49.3959 82.25C46.8679 83.928 44.2939 85.566 41.6859 87.162L42.3279 87.632C45.0039 89.572 47.7659 91.47 50.5979 93.322C53.0019 94.89 55.4679 96.398 57.9539 97.884C56.2439 97.866 54.5699 97.828 52.9339 97.772C52.8399 97.768 52.7439 97.766 52.6499 97.762C50.9979 97.702 49.3839 97.624 47.8199 97.522C47.6179 97.39 47.4079 97.266 47.2059 97.134C44.6459 95.444 42.1359 93.708 39.6799 91.928L37.0119 89.956C34.4819 91.43 31.9019 92.872 29.2879 94.276C28.9919 94.436 28.6919 94.578 28.3939 94.736C27.8199 94.586 27.2799 94.43 26.7499 94.27C26.5819 94.22 26.4119 94.17 26.2479 94.118C25.7919 93.976 25.3559 93.83 24.9379 93.682C24.6959 93.596 24.4679 93.508 24.2379 93.42C23.9039 93.292 23.5639 93.164 23.2579 93.03C22.7559 92.814 22.2839 92.592 21.8619 92.364C23.0479 91.764 24.2419 91.19 25.4219 90.568C27.8559 89.288 30.2719 87.964 32.6639 86.602C29.9479 84.442 27.3079 82.222 24.7539 79.948C22.1499 77.626 19.6399 75.252 17.2339 72.83C16.9359 72.974 16.6299 73.114 16.3259 73.256L14.7539 62.9C15.8719 64.166 16.9919 65.432 18.1719 66.67C20.5319 65.478 22.8859 64.24 25.2299 62.96C27.4919 61.726 29.7259 60.458 31.9259 59.166C28.9939 56.756 26.1639 54.282 23.4519 51.752C20.7059 49.19 18.0719 46.564 15.5659 43.884C14.4379 44.528 13.2959 45.15 12.1539 45.774L11.3419 40.426C11.5879 40.292 11.8319 40.16 12.0779 40.022C11.7459 39.642 11.4319 39.254 11.1059 38.872L9.5 28.5C9.632 28.678 9.89794 29.556 10.0339 29.734C12.0519 32.374 14.1939 34.968 16.4499 37.504C18.4819 36.308 20.4799 35.088 22.4419 33.856C23.0659 33.464 24.374 32.406 25 32C27.362 32.41 29.35 32.676 32 33C30.054 34.318 27.9759 36.34 26.0239 37.582C24.0319 38.852 22.0099 40.098 19.9659 41.318C22.4339 43.902 25.0299 46.442 27.7439 48.928C30.5459 51.49 33.4659 53.988 36.4899 56.416C38.9459 54.9 41.3639 53.348 43.7399 51.764C46.0459 50.228 48.3139 48.662 50.5339 47.07C49.1639 46.18 47.8059 45.268 46.4579 44.346C44.9799 43.332 43.4939 42.284 42.0099 41.208C40.2479 39.93 38.5279 38.64 36.8519 37.342C35.3379 36.168 33.432 34.18 32 33C34.93 33.35 36.784 33.62 40 33.856C41 34.5 43.6619 36.192 44.6539 36.912C46.3099 38.11 48.0319 39.318 49.8199 40.532C51.5119 41.682 53.2059 42.794 54.8919 43.87C57.9679 41.56 60.9759 39.184 63.9059 36.746C64.4779 36.272 65.948 34.986 66.5 34.5C69.21 34.444 70.776 34.43 73.364 34.294C71.63 35.862 70.0499 38.134 68.2419 39.66C65.3919 42.068 62.4659 44.42 59.4779 46.71C62.0199 48.242 64.6059 49.732 67.2299 51.174C69.9579 52.672 72.7299 54.124 75.5439 55.526L78.1979 53.058C79.1639 52.146 80.0959 51.246 80.9939 50.366C82.8579 48.536 84.6819 46.678 86.4559 44.798C88.0839 43.074 89.6759 41.326 91.2239 39.562C88.7859 38.41 86.872 37.222 84.5 36C83.534 35.502 82 34.5 81.016 33.772C84.242 33.492 87.312 33.15 90.218 32.754C91.648 33.454 93.2019 34.862 94.6579 35.538C95.5199 34.496 96.178 32.732 96.994 31.672C97.92 31.5 98.856 31.33 99.728 31.146C101.47 30.78 102.952 30.51 104.5 30C102.746 32.396 101.234 35.292 99.3219 37.642C101.476 38.588 103.642 39.5 105.814 40.378C106.706 40.738 107.626 41.076 108.528 41.428ZM36.1619 62.548C33.7919 63.97 31.3959 65.356 28.9779 66.698C26.6179 68.01 24.2619 69.27 21.9199 70.478C24.2499 72.764 26.6739 75.004 29.1839 77.192C31.7999 79.472 34.5179 81.704 37.3219 83.878C39.9839 82.284 42.6059 80.646 45.1819 78.968C47.6539 77.358 50.1039 75.7 52.5219 73.996C50.6879 72.84 48.8759 71.656 47.0919 70.452C45.1539 69.146 43.2279 67.798 41.3219 66.416L38.5999 64.412L36.1619 62.548ZM63.2819 54.788C60.5119 53.236 57.7859 51.63 55.1139 49.978C52.7219 51.728 50.3159 53.422 47.9019 55.058C45.5619 56.646 43.1739 58.204 40.7479 59.732L42.0979 60.746L43.9679 62.12C46.0679 63.644 48.2299 65.146 50.4419 66.62C52.5659 68.038 54.7399 69.434 56.9559 70.798C59.5419 68.888 62.0619 66.946 64.5079 64.982C66.8619 63.094 69.1819 61.154 71.4619 59.17C68.6959 57.758 65.9659 56.296 63.2819 54.788ZM76.3099 61.576C73.9399 63.686 71.4999 65.764 69.0039 67.804C66.5859 69.782 64.1239 71.714 61.6279 73.598C64.3539 75.188 67.1219 76.724 69.9219 78.202C72.8479 79.748 75.8199 81.238 78.8259 82.664C79.9299 81.67 81.0419 80.648 82.1599 79.6C83.3239 78.51 84.4679 77.41 85.5919 76.308C86.9239 75 88.2359 73.68 89.5219 72.346C90.6539 71.174 91.7659 69.994 92.8519 68.814C90.0939 67.726 87.3599 66.59 84.6539 65.408C81.8439 64.182 79.0599 62.902 76.3099 61.576Z" fill="#E0A065"/>
<path fill-rule="evenodd" clip-rule="evenodd" d="M103.946 23.6001C93.94 26.4181 77.9861 28.2421 60.0121 28.2421C42.0361 28.2421 26.082 26.4181 16.076 23.6001C26.082 20.7801 42.0361 18.9561 60.0121 18.9561C77.9861 18.9561 93.94 20.7801 103.946 23.6001Z" fill="#E0A065"/>
<path fill-rule="evenodd" clip-rule="evenodd" d="M99.866 31.092C89.588 33.26 75.488 34.602 60.012 34.602C60.008 34.602 60.004 34.602 60 34.602C59.996 34.602 59.992 34.602 59.988 34.602C44.512 34.602 30.412 33.26 20.134 31.092C16.01 30.222 10.422 28.91 7.44604 27.336L8.03004 18.756C12.43 23.886 33.158 26.91 59.988 26.91C59.992 26.91 59.996 26.91 60 26.91C60.004 26.91 60.008 26.91 60.012 26.91C86.842 26.91 107.57 23.886 111.97 18.756L112.554 27.336C109.578 28.91 103.99 30.222 99.866 31.092Z" fill="#332755"/>
<path opacity="0.502" fill-rule="evenodd" clip-rule="evenodd" d="M19.7859 31.044C28.9119 32.97 41.0579 34.238 54.4999 34.5C53.8279 56.408 54.7258 76.982 57.1298 97.952C44.4999 97.5 36.4999 97 25.4999 94L16.3239 30.244C17.5059 30.54 18.6759 30.81 19.7859 31.044Z" fill="#BF7B3D"/>
</g>
</g>

</svg>
