<svg width="120" height="200"  fill="none" xmlns="http://www.w3.org/2000/svg">
<g clip-path="url(#clip0_290_1987)">
<path fill-rule="evenodd" clip-rule="evenodd" d="M119.259 23.809L81.6927 157.852C79.1981 166.751 76.3974 176.295 73.7062 183.552C70.1101 193.251 65.7076 200.009 60.1836 200.009C54.6666 200.009 50.2581 193.251 46.662 183.552C43.9707 176.296 41.1691 166.751 38.6754 157.852L1.10893 23.809C0.509081 22.536 0.184082 21.1961 0.184082 19.7923C0.184082 12.7263 8.08738 7.2348 20.8687 4.07871C31.041 1.56561 44.9517 0.0090332 60.1836 0.0090332C75.4164 0.0090332 89.3272 1.56561 99.4985 4.07871C112.28 7.2348 120.184 12.7263 120.184 19.7923C120.184 21.1961 119.859 22.536 119.259 23.809Z" fill="#332755"/>
<path fill-rule="evenodd" clip-rule="evenodd" d="M60.1837 6.60474C89.6573 6.60474 113.549 12.5086 113.549 19.7922C113.549 27.0769 89.6573 32.9817 60.1837 32.9817C30.711 32.9817 6.81958 27.0769 6.81958 19.7922C6.81958 12.5086 30.711 6.60474 60.1837 6.60474Z" fill="#F8C494"/>
<path fill-rule="evenodd" clip-rule="evenodd" d="M6.81961 19.7952L6.8186 19.7922C6.8186 19.7932 6.81961 19.7942 6.81961 19.7952ZM60.1837 32.9817C87.2108 32.9817 109.53 28.0154 113.051 21.5735L107.93 39.848L107.929 39.849L103.302 56.3554L102.849 57.9759L94.762 86.827L93.2183 92.3374L83.4773 127.092L82.5184 130.516L75.3463 156.107C73.1125 164.075 70.6248 172.576 68.1803 179.453C68.1693 179.484 68.1592 179.512 68.1482 179.543C67.8433 180.4 67.5383 181.231 67.2354 182.034C67.2123 182.093 67.1902 182.153 67.1682 182.212C66.8622 183.015 66.5583 183.787 66.2564 184.525C66.2433 184.556 66.2303 184.591 66.2183 184.622C66.2173 184.622 66.2173 184.622 66.2162 184.622C64.0275 189.95 61.9411 193.444 60.1837 193.444C58.6861 193.444 56.9478 190.9 55.1111 186.848C55.1101 186.848 55.1091 186.849 55.1091 186.849C55.094 186.818 55.079 186.779 55.065 186.747C54.747 186.042 54.426 185.292 54.103 184.502C54.0819 184.451 54.0609 184.4 54.0398 184.348C53.7098 183.537 53.3778 182.685 53.0437 181.796C53.0347 181.773 53.0267 181.753 53.0177 181.73C52.0206 179.072 51.0115 176.1 50.0084 172.96C50.0084 172.959 50.0074 172.958 50.0074 172.957C49.5931 171.66 49.1809 170.337 48.7706 168.995C48.7686 168.989 48.7676 168.983 48.7656 168.976C47.9631 166.348 47.1707 163.654 46.4003 160.969C46.3943 160.947 46.3883 160.925 46.3813 160.903C45.9198 159.294 45.4664 157.69 45.0221 156.107L24.5702 83.1307L23.864 80.6127L19.5217 65.1178L18.6079 61.8558L8.99429 27.5552L7.31814 21.5765C10.844 28.0164 33.1616 32.9817 60.1837 32.9817ZM113.549 19.7952C113.549 19.7942 113.549 19.7932 113.549 19.7922V19.7952Z" fill="#F8C494"/>
<path fill-rule="evenodd" clip-rule="evenodd" d="M25.3234 42.5688C22.5569 40.0607 19.8877 37.4927 17.3329 34.8748C17.1734 34.713 17.0249 34.5463 16.8674 34.3835C18.1434 34.7829 19.4704 35.1613 20.8677 35.5068C22.7866 35.981 24.84 36.4203 27.0086 36.8227C27.9375 37.6834 28.8593 38.548 29.8122 39.3957C30.5997 38.8266 31.368 38.2435 32.1454 37.6674C34.611 38.0278 37.1919 38.3424 39.8702 38.6069C37.9433 40.1066 36.0023 41.5903 34.0312 43.0361C35.3784 44.1663 36.7195 45.2636 38.0526 46.3239C39.5402 47.5051 41.0849 48.6973 42.6778 49.8914C44.4503 51.2193 46.2578 52.5313 48.0945 53.8193C49.8468 55.0494 51.6163 56.2525 53.3928 57.4227C56.6197 54.9176 59.7684 52.3446 62.8238 49.7167C65.8079 47.1537 68.7189 44.5247 71.5456 41.8409C70.2596 41.0561 68.9867 40.2534 67.7178 39.4436C72.9178 39.2659 77.9011 38.9065 82.5645 38.3913C81.8302 39.1561 81.109 39.9259 80.3597 40.6857C82.7039 42.0176 85.0932 43.3226 87.5217 44.5926C90.0234 45.9016 92.5471 47.1696 95.088 48.3897C97.4071 45.4952 99.6349 42.5448 101.759 39.5485C103.148 37.5905 104.47 35.6126 105.761 33.6257C110.421 31.9463 110.07 31.5978 110.194 31.7656L107.929 39.848C107.437 40.5759 106.936 41.2998 106.432 42.0226C104.391 44.9441 102.243 47.8346 100.003 50.6822C101.445 51.3362 102.895 51.9772 104.353 52.6052L102.849 57.9758C100.701 57.0543 98.5566 56.0977 96.4211 55.1093C94.5323 57.3788 92.5883 59.6153 90.5982 61.8129C88.5158 64.1113 86.3631 66.3887 84.1463 68.6362L81.9295 70.8548L80.133 72.6091C82.8614 73.934 85.5948 75.202 88.3292 76.4082C91.0736 77.6193 93.8682 78.7925 96.6979 79.9207L93.2182 92.3374C91.8319 93.8231 90.4126 95.3018 88.9691 96.7675C88.0283 97.722 87.0743 98.6725 86.1124 99.6141L83.6769 101.964C85.68 102.891 87.7083 103.795 89.7586 104.677L88.254 110.048C85.2778 108.771 82.2976 107.422 79.3245 106.009C76.6703 108.411 73.9279 110.786 71.1082 113.122C68.3929 115.37 65.6214 117.569 62.7977 119.717C65.7076 121.391 68.6527 123.006 71.6238 124.552C74.7284 126.17 77.8821 127.727 81.0759 129.219C81.8804 128.515 82.6808 127.807 83.4773 127.092L80.8351 136.519C78.4177 138.554 75.9511 140.552 73.4394 142.509C70.6819 144.657 67.8773 146.756 65.0295 148.793C68.3487 150.544 71.7281 152.227 75.1567 153.84L75.8859 154.179L75.3453 156.107L74.3713 159.554C73.1144 158.971 71.8635 158.379 70.6197 157.778C67.0156 156.033 63.4657 154.21 59.987 152.314C56.8434 154.454 53.6475 156.532 50.4076 158.536C49.0795 159.359 47.7434 160.17 46.4003 160.969C45.9318 159.338 45.4734 157.712 45.023 156.107L44.8575 155.518L45.5978 155.073C48.6552 153.227 51.6805 151.31 54.6687 149.329C51.517 147.508 48.4285 145.628 45.4162 143.697C43.8203 142.675 42.2375 141.633 40.6686 140.571L37.7577 130.185C40.2002 128.704 42.6136 127.184 44.9919 125.632C47.6732 123.88 50.3394 122.065 52.9805 120.195C50.3815 118.57 47.8236 116.896 45.3129 115.183C42.6236 113.347 39.9875 111.462 37.4186 109.536L34.6361 107.411C33.7072 107.971 32.7744 108.524 31.8405 109.071L27.8442 94.8115C30.1493 96.8464 32.5276 98.8473 34.9701 100.806C37.7567 99.0809 40.4981 97.3087 43.1874 95.4975C45.7793 93.7522 48.3523 91.951 50.8951 90.0989C48.9591 88.8328 47.0553 87.5488 45.1925 86.2489C43.1452 84.8211 41.125 83.3614 39.1409 81.8737L36.2892 79.698L33.7463 77.6942C31.2647 79.2328 28.757 80.7324 26.2322 82.1832L24.5701 83.1307L23.0464 77.6942C25.1208 76.513 27.2032 75.2849 29.2926 74.0159C26.2232 71.4059 23.2531 68.7221 20.4003 65.9704L19.5216 65.1167L15.085 49.2853C16.5073 48.3997 17.9267 47.4961 19.338 46.5786C21.3713 45.2566 23.3684 43.9187 25.3234 42.5688ZM80.7449 64.4827C82.6838 62.5138 84.5957 60.4999 86.4705 58.4471C88.1918 56.562 89.8659 54.664 91.4819 52.7579C88.926 51.5089 86.3972 50.2179 83.9056 48.891C81.3487 47.5311 78.8179 46.1253 76.3243 44.6805C73.4404 47.4672 70.4663 50.1959 67.4159 52.8598C64.4217 55.4757 61.3502 58.0287 58.2136 60.5119C60.8708 62.1673 63.5841 63.7848 66.3516 65.3563C69.2004 66.9748 72.1023 68.5464 75.0463 70.062L77.8189 67.3972C78.8049 66.4317 79.7819 65.4592 80.7449 64.4827ZM81.9766 96.1734C83.1894 94.9983 84.3871 93.8091 85.5667 92.613C86.958 91.2012 88.3342 89.7664 89.6874 88.3176C90.873 87.0476 92.0426 85.7646 93.1881 84.4756C90.3053 83.2994 87.4354 82.0674 84.5907 80.7824C81.6537 79.4574 78.7387 78.0726 75.8588 76.6378C73.3832 78.9153 70.8284 81.1648 68.2103 83.3793C65.6866 85.515 63.1016 87.6127 60.4675 89.6675C63.3183 91.3859 66.2222 93.0533 69.1733 94.6638C72.2337 96.3332 75.3423 97.9447 78.4859 99.4903C79.6686 98.389 80.8331 97.2837 81.9766 96.1734ZM49.6121 129.108C46.8757 130.93 44.1022 132.707 41.3026 134.424C44.1784 136.415 47.1215 138.35 50.1197 140.223C53.2383 142.172 56.4391 144.067 59.7102 145.899C62.6673 143.837 65.5782 141.714 68.434 139.534C71.1764 137.443 73.8617 135.306 76.4797 133.133C73.3612 131.63 70.2937 130.074 67.2865 128.469C64.1538 126.799 61.0613 125.06 58.023 123.263C55.2705 125.257 52.4639 127.208 49.6121 129.108ZM47.6471 99.043C44.9859 100.867 42.2866 102.645 39.5552 104.374L40.2363 104.889C43.062 107.006 45.9569 109.065 48.908 111.057C51.7828 112.996 54.7349 114.89 57.7552 116.73C60.6541 114.575 63.4928 112.369 66.2603 110.122C68.9586 107.927 71.5807 105.705 74.1175 103.459C71.0099 101.893 67.9555 100.271 64.9633 98.5997C61.8648 96.8693 58.8064 95.0721 55.8042 93.217C53.1219 95.2119 50.4016 97.1559 47.6471 99.043ZM39.9946 75.7362L41.9576 77.2259C44.1844 78.8953 46.4504 80.5248 48.7455 82.1073C50.9703 83.6429 53.2443 85.1506 55.5544 86.6223C58.2356 84.5735 60.8748 82.4727 63.4547 80.3321C65.9293 78.2783 68.3668 76.1725 70.7571 74.0199C67.8442 72.4823 64.9794 70.8957 62.1718 69.2683C59.2839 67.5909 56.4311 65.8546 53.6265 64.0634C51.1469 65.9384 48.6271 67.7726 46.0813 69.5568C43.6207 71.2801 41.114 72.9745 38.5702 74.6299L39.9946 75.7362ZM24.9433 62.9231C27.8743 65.6948 30.9307 68.4016 34.0954 71.0255C36.6683 69.3831 39.2011 67.7037 41.6827 65.9954C44.0982 64.3319 46.4765 62.6326 48.8097 60.9023C47.3873 59.9438 45.9599 58.9563 44.5285 57.9409C42.9476 56.8206 41.3888 55.6844 39.8601 54.5392C38.0325 53.1703 36.227 51.7705 34.4565 50.3497C32.7934 49.0178 31.1474 47.6539 29.5254 46.265C27.4008 47.7557 25.2663 49.2065 23.1287 50.6123C21.0363 51.9891 18.9167 53.341 16.7782 54.661C19.3802 57.4806 22.1055 60.2383 24.9433 62.9231ZM61.8457 176.283C65.0697 174.203 68.2354 172.058 71.3319 169.857C70.4131 172.838 69.4832 175.72 68.5574 178.384L67.472 179.109L68.1812 179.453C67.5222 181.309 66.8652 183.045 66.2182 184.622C64.8369 183.957 63.4657 183.279 62.1025 182.59C59.7964 184.045 57.4633 185.465 55.109 186.849C54.4229 185.337 53.7248 183.613 53.0176 181.73C54.1762 181.047 55.3287 180.357 56.4742 179.657C54.7218 178.713 52.9825 177.751 51.2582 176.769C50.4246 174.3 49.5891 171.674 48.7655 168.976C49.4988 169.418 50.234 169.854 50.9743 170.287C54.5162 172.363 58.1444 174.365 61.8457 176.283Z" fill="#E0A065"/>
<path opacity="0.502" fill-rule="evenodd" clip-rule="evenodd" d="M20.8677 35.5068C29.4511 37.6275 40.7026 39.0623 53.1569 39.4607C44.8524 79.3157 57.1382 143.245 60.1836 187.537C56.3578 187.537 50.8178 159.726 46.3821 143.897C36.1105 107.251 25.8389 70.6043 15.5684 33.9583C17.2275 34.5214 18.9879 35.0416 20.8677 35.5068Z" fill="#BF7B3D"/>
<path fill-rule="evenodd" clip-rule="evenodd" d="M104.75 27.0001C95.33 30.7383 78.3153 32.9808 59.1825 32.9808C40.0486 32.9808 23.271 30.4916 13.8511 26.7534C23.271 23.0153 40.0486 20.5261 59.1825 20.5261C78.3153 20.5261 95.33 23.2619 104.75 27.0001Z" fill="#E0A065"/>
<path fill-rule="evenodd" clip-rule="evenodd" d="M99.5005 35.5068C89.3282 38.0209 75.4164 39.5765 60.1836 39.5765C44.9517 39.5765 31.04 38.0209 20.8677 35.5068C8.08939 32.3477 0.184082 26.8613 0.184082 19.7923C0.184082 12.7263 8.08739 7.2348 20.8687 4.07871C31.041 1.56561 44.9517 0.0090332 60.1836 0.0090332C75.4164 0.0090332 89.3272 1.56561 99.4985 4.07871C112.28 7.2348 120.184 12.7263 120.184 19.7923C120.184 26.8613 112.279 32.3477 99.5005 35.5068ZM60.1836 6.60478C30.711 6.60478 6.81949 12.5086 6.81949 19.7923C6.81949 27.0769 30.711 32.9818 60.1836 32.9818C89.6572 32.9818 113.549 27.0769 113.549 19.7923C113.549 12.5086 89.6572 6.60478 60.1836 6.60478Z" fill="#332755"/>
</g>

</svg>
